<?xml version="1.0" standalone="no"?>
<!DOCTYPE svg PUBLIC "-//W3C//DTD SVG 20010904//EN"
 "http://www.w3.org/TR/2001/REC-SVG-20010904/DTD/svg10.dtd">
<svg version="1.0" xmlns="http://www.w3.org/2000/svg"
 width="900.000000pt" height="300.000000pt" viewBox="0 0 900.000000 300.000000"
 preserveAspectRatio="xMidYMid meet">
<metadata>
Created by potrace 1.10, written by Peter Selinger 2001-2011
</metadata>
<g transform="translate(0.000000,300.000000) scale(0.100000,-0.100000)"
fill="#000000" stroke="none">
<path d="M940 2451 c-156 -26 -307 -124 -418 -272 -41 -56 -59 -92 -95 -194
-19 -56 -21 -86 -25 -458 -3 -302 -1 -401 8 -412 10 -13 58 -15 286 -15 186 0
275 3 280 11 3 6 -46 64 -114 132 l-120 122 -7 80 c-13 132 1 412 22 467 28
71 95 142 171 180 60 30 73 33 156 32 77 -1 99 -5 141 -27 107 -55 182 -164
192 -277 16 -172 -109 -345 -264 -367 -70 -10 -57 -31 117 -200 l157 -153 236
0 c130 0 238 4 241 9 3 4 -44 57 -105 117 -148 146 -154 154 -138 202 6 20 23
60 36 87 26 55 38 101 54 215 9 64 8 89 -10 172 -56 269 -213 448 -466 533
-56 18 -261 29 -335 16z"/>
<path d="M6592 2352 c-10 -7 -12 -127 -10 -568 l3 -559 35 0 35 0 3 493 c1
316 6 492 12 492 16 0 37 -27 152 -205 196 -300 279 -424 288 -430 16 -10 35
7 71 63 80 126 156 243 228 352 42 63 78 120 81 125 15 32 74 104 81 99 5 -3
9 -228 9 -500 l0 -495 38 3 37 3 3 562 2 563 -24 6 c-49 12 -79 0 -108 -41
-16 -22 -32 -47 -36 -55 -4 -8 -34 -55 -66 -105 -33 -49 -93 -142 -134 -205
-41 -63 -95 -145 -119 -182 -25 -38 -50 -68 -56 -68 -7 0 -23 19 -37 41 -37
61 -42 69 -85 134 -22 33 -42 65 -45 70 -15 30 -265 401 -274 407 -15 10 -68
10 -84 0z"/>
<path d="M3962 2330 c-12 -12 -22 -30 -22 -40 0 -22 33 -60 53 -60 27 0 57 31
57 60 0 18 -8 34 -22 44 -29 21 -40 20 -66 -4z"/>
<path d="M2365 2023 c-54 -14 -149 -68 -190 -108 -24 -25 -59 -76 -77 -113
-26 -56 -32 -82 -36 -159 -11 -240 127 -406 355 -428 130 -13 279 34 352 109
31 32 31 33 11 51 -18 17 -21 17 -42 1 -97 -71 -166 -95 -274 -96 -88 0 -147
19 -212 67 -50 38 -102 125 -109 183 l-6 50 342 0 c217 0 349 4 362 10 23 13
25 76 5 160 -20 83 -49 132 -111 188 -75 66 -151 92 -266 91 -46 -1 -93 -4
-104 -6z m193 -69 c110 -32 159 -69 201 -153 25 -49 36 -128 20 -147 -9 -12
-63 -14 -314 -14 -341 0 -333 -2 -321 71 12 75 65 156 130 196 94 60 186 75
284 47z"/>
<path d="M4515 2012 c-147 -50 -236 -150 -271 -303 -30 -134 15 -296 108 -389
140 -140 424 -143 583 -6 34 29 38 37 29 53 -16 26 -36 26 -65 0 -82 -77 -264
-110 -382 -69 -98 33 -196 154 -200 247 l-2 30 355 5 355 5 -1 95 c0 74 -5
105 -22 142 -31 69 -92 131 -170 169 -61 30 -77 34 -167 36 -75 2 -113 -2
-150 -15z m231 -61 c108 -33 173 -93 207 -195 22 -65 21 -93 -2 -106 -27 -14
-595 -14 -622 0 -23 13 -24 35 -4 86 49 123 103 176 220 215 67 23 127 23 201
0z"/>
<path d="M8095 2011 c-68 -24 -92 -39 -144 -86 -85 -79 -131 -185 -131 -305 0
-152 91 -318 198 -362 15 -6 43 -18 62 -26 25 -11 68 -16 150 -16 109 1 119 2
185 34 39 18 87 48 107 68 31 30 35 37 25 53 -16 25 -19 25 -85 -19 -80 -53
-144 -72 -241 -72 -71 0 -90 4 -147 32 -96 47 -163 136 -167 221 l-2 42 355 5
c195 3 356 7 358 8 7 6 -1 125 -12 172 -31 125 -105 205 -231 249 -77 27 -208
28 -280 2z m268 -71 c103 -39 168 -118 182 -220 11 -83 25 -80 -320 -80 -339
0 -333 -1 -322 68 12 71 60 146 122 191 100 72 219 86 338 41z"/>
<path d="M3054 2006 c-3 -8 1 -28 9 -43 19 -38 38 -82 82 -188 20 -49 43 -106
51 -125 20 -45 22 -51 84 -200 72 -174 71 -172 84 -200 10 -21 19 -25 55 -25
42 0 43 1 63 50 11 28 26 64 33 80 8 17 21 48 30 70 9 22 20 49 25 60 5 11 25
61 46 110 35 87 45 111 77 185 48 110 87 211 87 225 0 12 -8 15 -31 13 -35 -4
-43 -15 -95 -143 -20 -49 -55 -137 -79 -195 -73 -177 -132 -324 -139 -344 -6
-17 -8 -18 -24 -3 -10 9 -29 43 -41 74 -13 32 -29 72 -36 88 -7 17 -29 71 -49
120 -21 50 -41 99 -46 110 -4 11 -24 61 -44 110 -20 50 -41 98 -46 107 -6 10
-10 24 -10 32 0 37 -74 64 -86 32z"/>
<path d="M3962 1623 l3 -398 33 -3 32 -3 0 400 0 401 -35 0 -35 0 2 -397z"/>
<path d="M5235 1983 c4 -21 13 -51 20 -68 7 -16 15 -39 18 -50 3 -11 22 -65
42 -120 20 -55 42 -118 50 -140 7 -22 27 -78 44 -125 18 -47 43 -118 57 -159
30 -91 38 -101 79 -101 34 0 48 11 58 45 3 11 15 45 27 75 42 111 73 198 111
320 43 135 69 196 83 193 5 -1 16 -26 26 -55 9 -29 31 -100 50 -158 18 -58 43
-132 56 -165 12 -33 32 -87 44 -120 47 -132 49 -135 92 -135 42 0 36 -8 80
105 11 28 23 64 28 80 9 32 28 88 41 120 9 21 19 51 75 215 19 58 39 114 44
125 26 56 49 140 41 148 -5 5 -21 7 -37 5 -29 -3 -30 -7 -144 -345 -63 -189
-119 -343 -125 -343 -15 0 -28 29 -75 174 -22 66 -44 130 -49 141 -12 30 -32
86 -41 120 -16 54 -70 210 -82 233 -12 24 -42 29 -55 10 -9 -15 -31 -71 -43
-113 -5 -16 -43 -129 -86 -250 -42 -121 -82 -240 -89 -264 -21 -79 -41 -66
-79 54 -15 44 -30 89 -35 100 -10 24 -16 43 -91 267 -72 217 -72 218 -111 218
-31 0 -31 -1 -24 -37z"/>
<path d="M1015 817 c-3 -7 -4 -80 -3 -162 l3 -150 88 0 c108 0 121 18 17 25
l-75 5 0 55 0 55 54 5 c75 7 81 30 8 30 -60 0 -67 7 -67 63 0 49 10 56 80 59
93 4 81 22 -18 26 -61 2 -84 -1 -87 -11z"/>
<path d="M1286 823 c-3 -4 -6 -78 -6 -165 0 -134 2 -158 15 -158 12 0 15 20
15 119 0 119 10 155 30 109 6 -13 19 -36 30 -53 11 -16 25 -41 30 -55 6 -13
14 -27 18 -30 4 -3 17 -23 28 -45 14 -25 29 -40 40 -40 18 0 19 12 22 158 2
125 0 158 -10 155 -9 -4 -13 -36 -14 -119 -1 -63 -2 -117 -3 -121 -1 -8 -51
36 -51 45 0 3 -25 48 -55 101 -52 88 -75 113 -89 99z"/>
<path d="M1637 807 c-20 -16 -27 -32 -27 -58 0 -46 13 -61 87 -100 65 -33 78
-51 68 -92 -9 -33 -58 -43 -116 -23 -50 18 -59 14 -34 -14 14 -16 31 -20 81
-20 57 0 64 2 88 31 49 57 29 98 -74 153 -71 37 -85 63 -54 97 18 20 88 27 99
9 9 -15 25 -12 25 5 0 39 -101 48 -143 12z"/>
<path d="M2091 812 c-6 -11 -11 -66 -11 -122 0 -114 -14 -155 -55 -162 -85
-17 -115 32 -115 187 0 87 -3 105 -15 105 -12 0 -15 -20 -15 -116 0 -117 5
-140 43 -181 17 -19 31 -23 78 -23 55 0 59 2 86 37 26 34 28 43 31 156 4 121
-5 160 -27 119z"/>
<path d="M2215 808 c-3 -13 -4 -86 -3 -163 3 -116 6 -140 18 -140 11 0 16 16
20 64 4 45 10 67 22 75 23 14 44 -6 88 -83 19 -34 41 -61 48 -61 14 0 17 36 3
44 -5 3 -19 25 -31 47 l-21 42 29 31 c80 85 29 166 -105 166 -57 0 -63 -2 -68
-22z m150 -24 c34 -22 35 -77 3 -98 -34 -21 -76 -28 -98 -16 -16 9 -20 21 -20
64 0 29 3 56 7 59 12 13 84 7 108 -9z"/>
<path d="M2663 822 c-8 -5 -12 -55 -14 -157 -2 -133 0 -150 14 -153 15 -3 17
10 17 108 0 97 2 111 16 108 9 -2 27 -23 41 -48 93 -172 114 -200 131 -174 4
7 6 80 4 164 -2 112 -6 150 -15 147 -8 -2 -14 -42 -17 -118 -3 -63 -9 -113
-14 -112 -8 2 -27 30 -42 63 -9 19 -105 180 -107 180 -1 0 -7 -4 -14 -8z"/>
<path d="M3033 809 c-52 -33 -73 -77 -73 -150 0 -106 49 -159 148 -159 79 0
92 13 92 89 0 63 -9 76 -49 76 -32 0 -37 -18 -9 -30 18 -8 24 -19 26 -56 3
-45 2 -47 -28 -53 -35 -7 -78 1 -99 18 -21 16 -51 86 -51 119 0 32 23 82 53
115 16 17 31 22 68 22 26 0 51 -4 54 -10 3 -5 11 -10 17 -10 6 0 1 11 -12 25
-30 32 -91 34 -137 4z"/>
<path d="M3467 812 c-9 -9 -18 -30 -22 -47 -4 -16 -13 -43 -20 -60 -25 -58
-66 -197 -60 -203 10 -10 45 37 45 59 0 24 29 39 75 39 46 0 75 -15 75 -39 0
-26 34 -66 48 -57 8 5 9 13 2 25 -5 10 -20 52 -34 92 -23 70 -37 109 -58 171
-12 34 -32 41 -51 20z m41 -80 c8 -20 17 -54 19 -75 l5 -38 -43 3 c-38 3 -44
6 -47 27 -2 13 3 40 11 60 9 20 18 45 21 55 8 23 16 16 34 -32z"/>
<path d="M3975 820 c-7 -12 7 -18 55 -22 l35 -3 3 -147 c2 -121 5 -148 17
-148 12 0 15 27 17 148 l3 147 45 5 c25 3 45 10 45 15 0 14 -211 19 -220 5z"/>
<path d="M4615 817 c-3 -7 -4 -80 -3 -162 l3 -150 88 -3 c69 -2 88 0 85 10 -3
8 -30 15 -74 18 l-69 5 0 55 0 55 55 5 c30 3 55 10 55 15 0 6 -25 12 -55 15
l-55 5 0 55 0 55 68 5 c96 7 89 24 -11 28 -61 2 -84 -1 -87 -11z"/>
<path d="M4886 823 c-3 -3 -6 -78 -6 -165 0 -123 3 -159 13 -156 8 3 14 41 17
123 3 82 9 120 18 123 7 2 12 -5 12 -15 0 -11 4 -23 9 -29 5 -5 20 -29 33 -54
53 -99 90 -151 107 -148 14 3 16 24 19 152 2 140 -4 183 -25 162 -4 -4 -7 -59
-6 -121 1 -108 0 -114 -18 -105 -18 10 -39 42 -60 93 -6 15 -15 27 -20 27 -5
0 -9 6 -9 14 0 8 -6 21 -14 28 -7 8 -17 24 -20 36 -8 23 -39 46 -50 35z"/>
<path d="M5187 824 c-13 -14 5 -24 43 -24 l39 0 3 -147 c3 -124 5 -148 18
-148 12 0 15 23 18 134 1 75 7 140 13 147 6 7 27 14 47 16 20 2 37 8 37 13 0
11 -207 20 -218 9z"/>
<path d="M5680 817 c-13 -7 -37 -30 -52 -52 -22 -32 -27 -51 -28 -97 0 -71 11
-101 52 -139 28 -25 40 -29 90 -29 39 0 62 5 73 16 21 22 17 24 -34 14 -69
-12 -103 2 -129 55 -26 55 -28 95 -5 143 28 60 50 73 111 68 28 -2 52 -1 52 3
0 30 -83 42 -130 18z"/>
<path d="M6043 812 c-26 -20 -38 -67 -26 -101 6 -15 35 -37 79 -61 62 -33 69
-40 72 -70 2 -18 -1 -37 -7 -43 -14 -14 -102 -12 -130 3 -30 16 -39 5 -16 -20
14 -16 31 -20 79 -20 73 0 103 17 111 63 11 55 -6 79 -83 117 -76 38 -91 60
-66 97 16 25 69 31 106 12 29 -16 37 0 9 22 -30 24 -98 25 -128 1z"/>
<path d="M6295 817 c-3 -7 -4 -80 -3 -162 l3 -150 88 -3 c69 -2 88 0 85 10 -3
8 -30 15 -74 18 l-69 5 0 55 0 55 55 5 c30 3 55 10 55 15 0 6 -25 12 -55 15
l-55 5 0 55 0 55 68 5 c96 7 89 24 -11 28 -61 2 -84 -1 -87 -11z"/>
<path d="M6567 823 c-4 -3 -7 -78 -7 -165 0 -128 3 -158 14 -158 10 0 15 19
18 71 2 47 8 73 18 79 13 8 12 11 -3 22 -15 11 -18 25 -15 68 l3 55 47 3 c40
3 52 -1 73 -22 14 -14 25 -31 25 -39 0 -24 -40 -67 -63 -67 -41 0 -51 -15 -25
-36 12 -11 34 -41 48 -67 30 -58 47 -74 61 -60 7 7 0 25 -20 56 -39 56 -39 73
-1 109 48 46 41 101 -20 142 -25 16 -139 23 -153 9z"/>
<path d="M7291 805 c-62 -53 -82 -129 -55 -206 27 -73 61 -99 133 -99 57 0 81
11 81 38 0 12 -3 12 -15 2 -8 -7 -37 -13 -64 -13 -41 -1 -53 3 -70 24 -53 65
-48 185 9 228 31 23 79 27 111 11 23 -13 26 2 3 24 -25 26 -97 21 -133 -9z"/>
<path d="M7552 822 c-9 -6 -12 -46 -10 -163 l3 -154 88 0 c103 0 120 19 20 23
-37 2 -70 7 -73 12 -3 4 -3 31 -2 59 l4 51 54 0 c40 0 54 4 54 14 0 11 -15 16
-52 18 l-53 3 -3 57 -3 57 68 3 c37 2 68 8 68 13 0 12 -145 18 -163 7z"/>
<path d="M7830 801 c-55 -54 -34 -100 70 -154 56 -29 65 -38 68 -64 2 -18 -3
-35 -13 -43 -20 -17 -110 -17 -130 0 -26 21 -41 6 -17 -18 18 -18 34 -22 85
-22 79 0 107 23 107 87 0 46 -4 51 -91 97 -67 36 -80 57 -59 95 12 24 76 29
113 9 21 -11 21 -10 6 13 -13 19 -27 25 -63 27 -40 3 -50 -1 -76 -27z"/>
<path d="M2512 663 c2 -114 6 -157 16 -161 9 -3 12 33 12 157 0 138 -2 161
-15 161 -13 0 -15 -22 -13 -157z"/>
<path d="M3672 686 c3 -126 5 -136 27 -160 21 -22 33 -26 80 -26 46 0 61 5 83
25 23 22 27 34 33 120 7 91 3 160 -10 173 -16 16 -25 -33 -25 -139 0 -133 -9
-151 -76 -151 -66 0 -77 22 -82 167 -4 102 -7 125 -19 125 -13 0 -14 -21 -11
-134z"/>
<path d="M4282 663 c2 -97 7 -158 13 -158 6 0 11 33 13 73 l3 73 77 -3 77 -3
5 -68 c3 -37 8 -67 13 -67 4 0 12 0 17 0 7 0 10 53 8 152 -3 136 -5 153 -20
156 -16 3 -18 -5 -18 -55 0 -81 -4 -85 -86 -81 l-69 3 -5 64 c-3 40 -10 66
-18 69 -10 3 -12 -30 -10 -155z"/>
<path d="M5480 666 c0 -103 4 -157 11 -162 21 -12 24 13 21 165 -2 124 -6 151
-18 151 -12 0 -14 -26 -14 -154z"/>
<path d="M6810 809 c0 -14 17 -69 33 -109 5 -14 13 -38 18 -55 40 -148 72
-181 103 -105 9 22 16 47 16 54 0 8 7 27 15 42 8 16 15 38 15 49 1 11 7 31 15
45 17 31 20 93 3 88 -6 -2 -20 -35 -30 -74 -11 -38 -26 -84 -34 -102 -8 -18
-14 -44 -14 -57 0 -14 -6 -25 -13 -25 -16 0 -36 39 -48 90 -25 110 -45 165
-62 168 -9 2 -17 -2 -17 -9z"/>
<path d="M7110 664 c0 -143 1 -155 18 -152 9 2 17 9 16 16 -1 6 -2 75 -2 152
-2 117 -4 140 -17 140 -13 0 -15 -24 -15 -156z"/>
</g>
</svg>
